<?xml version="1.0" standalone="no"?>
<!DOCTYPE svg PUBLIC "-//W3C//DTD SVG 20010904//EN"
 "http://www.w3.org/TR/2001/REC-SVG-20010904/DTD/svg10.dtd">
<svg version="1.0" xmlns="http://www.w3.org/2000/svg"
 width="1000.000000pt" height="1000.000000pt" viewBox="0 0 1000.000000 1000.000000"
 preserveAspectRatio="xMidYMid meet">

<g transform="translate(0.000000,1000.000000) scale(0.100000,-0.100000)"
fill="#000000" stroke="none">
<path d="M4970 8590 c-49 -9 -40 -4 -605 -340 -1434 -853 -1695 -1008 -1990
-1183 -1047 -622 -961 -567 -1000 -631 -26 -43 -30 -59 -30 -120 1 -79 21
-130 72 -178 15 -15 208 -129 428 -254 220 -125 947 -537 1615 -917 668 -380
1265 -719 1325 -753 168 -95 228 -103 337 -45 29 16 582 332 1228 703 646 371
1409 809 1695 973 286 163 532 309 548 323 95 89 93 258 -4 348 -19 18 -275
173 -569 346 -294 174 -962 567 -1485 875 -1420 837 -1416 834 -1444 843 -44
14 -84 17 -121 10z m1295 -1260 c545 -321 1140 -671 1323 -779 183 -108 333
-200 333 -205 1 -5 -136 -88 -303 -183 -166 -96 -395 -227 -508 -292 -1217
-702 -2114 -1212 -2125 -1208 -7 3 -147 82 -311 175 -165 93 -776 441 -1359
772 -583 331 -1099 625 -1147 652 -49 27 -88 52 -88 56 0 4 184 116 408 249
224 133 883 525 1466 871 l1058 630 132 -78 c72 -42 577 -339 1121 -660z"/>
<path d="M8335 5206 c-28 -12 -601 -340 -2530 -1449 -440 -253 -804 -460 -810
-460 -8 0 -806 451 -2435 1378 -800 455 -891 505 -935 515 -84 19 -165 -9
-228 -79 -77 -85 -82 -213 -13 -303 33 -45 49 -54 601 -367 220 -125 1298
-737 2580 -1466 176 -100 335 -187 354 -193 43 -15 109 -15 151 0 19 6 270
147 559 313 289 166 760 436 1046 600 286 164 804 461 1150 660 347 199 655
375 685 393 105 59 153 132 152 232 0 98 -49 176 -137 216 -57 27 -141 31
-190 10z"/>
<path d="M8362 3851 c-36 -9 -69 -28 -592 -328 -1200 -689 -2505 -1438 -2631
-1510 l-146 -83 -794 451 c-437 248 -1010 574 -1274 724 -264 150 -644 366
-845 480 -201 114 -383 216 -405 226 -48 22 -142 25 -189 5 -124 -52 -184
-204 -129 -326 36 -80 -41 -32 968 -605 231 -131 512 -291 625 -355 113 -64
509 -289 880 -500 371 -211 765 -435 875 -497 109 -62 214 -116 233 -119 18
-4 57 -4 87 -2 47 4 85 23 317 155 402 231 1259 723 2008 1153 371 213 792
454 935 536 142 81 274 161 293 178 93 82 106 228 28 330 -48 64 -166 106
-244 87z"/>
</g>
</svg>
