<?xml version="1.0" standalone="no"?>
<!DOCTYPE svg PUBLIC "-//W3C//DTD SVG 20010904//EN"
 "http://www.w3.org/TR/2001/REC-SVG-20010904/DTD/svg10.dtd">
<svg data-v-423bf9ae="" xmlns="http://www.w3.org/2000/svg" viewBox="0 0 585 91" class="iconLeft"><!----><!----><!----><g data-v-423bf9ae="" id="388952b5-7051-4ce5-b112-ca821a03394b" fill="#000000" transform="matrix(5.730659401617148,0,0,5.730659401617148,113.78236180509703,-8.037252115708753)"><path d="M10.70 7.88L10.70 7.88Q10.47 8.69 9.86 9.15L9.86 9.15L9.86 9.15Q9.24 9.60 8.30 9.72L8.30 9.72L8.30 9.72Q8.97 9.77 9.31 10.11L9.31 10.11L9.31 10.11Q9.65 10.44 9.65 10.99L9.65 10.99L9.65 10.99Q9.65 11.20 9.58 11.51L9.58 11.51L9.42 12.19L9.42 12.19Q9.39 12.33 9.39 12.39L9.39 12.39L9.39 12.39Q9.39 12.57 9.48 12.66L9.48 12.66L9.48 12.66Q9.56 12.75 9.72 12.75L9.72 12.75L9.72 12.75Q10.01 12.75 10.14 12.84L10.14 12.84L10.14 12.84Q10.28 12.92 10.23 13.15L10.23 13.15L10.23 13.15Q10.18 13.47 9.90 13.78L9.90 13.78L9.90 13.78Q9.62 14.08 9.11 14.29L9.11 14.29L9.11 14.29Q8.60 14.49 7.87 14.49L7.87 14.49L7.87 14.49Q6.94 14.49 6.40 14.08L6.40 14.08L6.40 14.08Q5.85 13.66 5.85 12.89L5.85 12.89L5.85 12.89Q5.85 12.60 5.94 12.26L5.94 12.26L6.16 11.37L6.16 11.37Q6.22 11.19 6.22 10.99L6.22 10.99L6.22 10.99Q6.22 10.67 6.00 10.53L6.00 10.53L6.00 10.53Q5.78 10.39 5.31 10.39L5.31 10.39L4.77 10.39L4.13 12.71L4.13 12.71Q4.10 12.80 4.10 12.92L4.10 12.92L4.10 12.92Q4.10 13.12 4.20 13.26L4.20 13.26L4.20 13.26Q4.30 13.40 4.47 13.55L4.47 13.55L4.47 13.55Q4.59 13.65 4.66 13.74L4.66 13.74L4.66 13.74Q4.73 13.83 4.73 13.93L4.73 13.93L4.73 13.93Q4.73 14.17 4.51 14.27L4.51 14.27L4.51 14.27Q4.28 14.36 3.85 14.36L3.85 14.36L0.34 14.36L0.34 14.36Q-0.03 14.36-0.21 14.23L-0.21 14.23L-0.21 14.23Q-0.39 14.10-0.34 13.86L-0.34 13.86L-0.34 13.86Q-0.31 13.73-0.23 13.66L-0.23 13.66L-0.23 13.66Q-0.15 13.58 0 13.48L0 13.48L0 13.48Q0.24 13.34 0.38 13.19L0.38 13.19L0.38 13.19Q0.52 13.03 0.60 12.71L0.60 12.71L2.31 6.68L2.31 6.68Q2.37 6.50 2.37 6.33L2.37 6.33L2.37 6.33Q2.37 6.17 2.32 6.07L2.32 6.07L2.32 6.07Q2.27 5.96 2.18 5.82L2.18 5.82L2.18 5.82Q2.06 5.64 2.06 5.53L2.06 5.53L2.06 5.53Q2.06 5.49 2.09 5.38L2.09 5.38L2.09 5.38Q2.14 5.19 2.33 5.12L2.33 5.12L2.33 5.12Q2.52 5.04 2.91 5.04L2.91 5.04L7.60 5.04L7.60 5.04Q8.57 5.04 9.29 5.33L9.29 5.33L9.29 5.33Q10.01 5.63 10.39 6.14L10.39 6.14L10.39 6.14Q10.78 6.65 10.78 7.29L10.78 7.29L10.78 7.29Q10.78 7.59 10.70 7.88L10.70 7.88ZM7.11 7.74L7.11 7.74Q7.18 7.42 7.18 7.25L7.18 7.25L7.18 7.25Q7.18 6.51 6.37 6.51L6.37 6.51L5.78 6.51L5.17 8.99L5.75 8.99L5.75 8.99Q6.30 8.99 6.62 8.72L6.62 8.72L6.62 8.72Q6.93 8.46 7.11 7.74L7.11 7.74ZM20.08 8.72L18.94 12.43L18.94 12.43Q18.91 12.54 18.91 12.60L18.91 12.60L18.91 12.60Q18.91 12.70 18.96 12.75L18.96 12.75L18.96 12.75Q19.01 12.81 19.10 12.81L19.10 12.81L19.10 12.81Q19.26 12.81 19.38 12.66L19.38 12.66L19.38 12.66Q19.50 12.52 19.54 12.52L19.54 12.52L19.54 12.52Q19.61 12.52 19.66 12.61L19.66 12.61L19.66 12.61Q19.71 12.70 19.71 12.82L19.71 12.82L19.71 12.82Q19.73 13.22 19.43 13.60L19.43 13.60L19.43 13.60Q19.14 13.99 18.61 14.24L18.61 14.24L18.61 14.24Q18.07 14.49 17.42 14.49L17.42 14.49L17.42 14.49Q16.59 14.49 16.10 14.15L16.10 14.15L16.10 14.15Q15.61 13.82 15.47 13.27L15.47 13.27L15.47 13.27Q14.97 13.83 14.36 14.12L14.36 14.12L14.36 14.12Q13.75 14.41 13.12 14.41L13.12 14.41L13.12 14.41Q12.14 14.41 11.47 13.92L11.47 13.92L11.47 13.92Q10.81 13.44 10.81 12.57L10.81 12.57L10.81 12.57Q10.81 12.18 10.95 11.76L10.95 11.76L11.84 8.83L11.84 8.83Q11.89 8.71 11.89 8.62L11.89 8.62L11.89 8.62Q11.89 8.47 11.82 8.38L11.82 8.38L11.82 8.38Q11.75 8.29 11.61 8.19L11.61 8.19L11.61 8.19Q11.47 8.08 11.41 7.99L11.41 7.99L11.41 7.99Q11.35 7.91 11.40 7.77L11.40 7.77L11.40 7.77Q11.48 7.45 12.28 7.20L12.28 7.20L12.28 7.20Q13.08 6.96 13.94 6.96L13.94 6.96L13.94 6.96Q14.76 6.96 15.13 7.27L15.13 7.27L15.13 7.27Q15.51 7.57 15.51 8.11L15.51 8.11L15.51 8.11Q15.51 8.43 15.41 8.72L15.41 8.72L14.53 11.63L14.53 11.63Q14.48 11.79 14.48 11.93L14.48 11.93L14.48 11.93Q14.48 12.12 14.59 12.22L14.59 12.22L14.59 12.22Q14.70 12.32 14.88 12.32L14.88 12.32L14.88 12.32Q15.15 12.32 15.32 12.17L15.32 12.17L15.32 12.17Q15.48 12.01 15.65 11.65L15.65 11.65L16.51 8.83L16.51 8.83Q16.55 8.71 16.55 8.62L16.55 8.62L16.55 8.62Q16.55 8.47 16.48 8.38L16.48 8.38L16.48 8.38Q16.41 8.29 16.28 8.19L16.28 8.19L16.28 8.19Q16.14 8.08 16.09 7.99L16.09 7.99L16.09 7.99Q16.03 7.91 16.07 7.77L16.07 7.77L16.07 7.77Q16.14 7.45 16.94 7.20L16.94 7.20L16.94 7.20Q17.74 6.96 18.61 6.96L18.61 6.96L18.61 6.96Q19.42 6.96 19.80 7.27L19.80 7.27L19.80 7.27Q20.19 7.57 20.19 8.09L20.19 8.09L20.19 8.09Q20.19 8.36 20.08 8.72L20.08 8.72ZM24.70 4.02L24.70 4.02Q25.51 4.02 25.89 4.33L25.89 4.33L25.89 4.33Q26.28 4.63 26.28 5.17L26.28 5.17L26.28 5.17Q26.28 5.47 26.18 5.77L26.18 5.77L23.98 12.91L23.98 12.91Q23.94 13.08 23.94 13.20L23.94 13.20L23.94 13.20Q23.94 13.38 24.01 13.49L24.01 13.49L24.01 13.49Q24.08 13.59 24.21 13.69L24.21 13.69L24.21 13.69Q24.30 13.79 24.35 13.85L24.35 13.85L24.35 13.85Q24.39 13.92 24.36 14.01L24.36 14.01L24.36 14.01Q24.29 14.20 24.08 14.28L24.08 14.28L24.08 14.28Q23.87 14.36 23.44 14.36L23.44 14.36L20.24 14.36L20.24 14.36Q19.88 14.36 19.71 14.25L19.71 14.25L19.71 14.25Q19.54 14.13 19.60 13.93L19.60 13.93L19.60 13.93Q19.66 13.76 19.89 13.64L19.89 13.64L19.89 13.64Q20.10 13.52 20.24 13.37L20.24 13.37L20.24 13.37Q20.38 13.22 20.48 12.88L20.48 12.88L22.61 5.89L22.61 5.89Q22.65 5.77 22.65 5.68L22.65 5.68L22.65 5.68Q22.65 5.53 22.57 5.43L22.57 5.43L22.57 5.43Q22.50 5.33 22.37 5.24L22.37 5.24L22.37 5.24Q22.23 5.12 22.17 5.04L22.17 5.04L22.17 5.04Q22.11 4.96 22.15 4.82L22.15 4.82L22.15 4.82Q22.23 4.49 23.03 4.26L23.03 4.26L23.03 4.26Q23.83 4.02 24.70 4.02L24.70 4.02ZM30.10 6.89L30.10 6.89Q31.88 6.89 32.68 7.46L32.68 7.46L32.68 7.46Q33.47 8.02 33.47 8.90L33.47 8.90L33.47 8.90Q33.47 9.17 33.42 9.39L33.42 9.39L33.42 9.39Q33.21 10.32 32.25 10.72L32.25 10.72L32.25 10.72Q31.29 11.12 29.99 11.12L29.99 11.12L29.99 11.12Q29.33 11.12 28.76 11.03L28.76 11.03L28.76 11.03Q28.74 11.76 29.15 12.05L29.15 12.05L29.15 12.05Q29.55 12.35 30.28 12.35L30.28 12.35L30.28 12.35Q30.62 12.35 30.93 12.27L30.93 12.27L30.93 12.27Q31.23 12.19 31.71 12.04L31.71 12.04L31.71 12.04Q32.10 11.90 32.24 11.90L32.24 11.90L32.24 11.90Q32.40 11.90 32.40 12.08L32.40 12.08L32.40 12.08Q32.41 12.57 32.03 13.11L32.03 13.11L32.03 13.11Q31.65 13.65 30.91 14.03L30.91 14.03L30.91 14.03Q30.17 14.41 29.12 14.41L29.12 14.41L29.12 14.41Q27.57 14.41 26.57 13.62L26.57 13.62L26.57 13.62Q25.58 12.84 25.58 11.34L25.58 11.34L25.58 11.34Q25.58 10.92 25.69 10.36L25.69 10.36L25.69 10.36Q26.04 8.64 27.22 7.76L27.22 7.76L27.22 7.76Q28.41 6.89 30.10 6.89L30.10 6.89ZM28.85 10.19L28.85 10.19Q28.91 10.21 29.01 10.21L29.01 10.21L29.01 10.21Q29.60 10.21 29.90 9.66L29.90 9.66L29.90 9.66Q30.21 9.11 30.20 8.44L30.20 8.44L30.20 8.44Q30.18 8.05 29.97 8.05L29.97 8.05L29.97 8.05Q29.82 8.05 29.61 8.30L29.61 8.30L29.61 8.30Q29.40 8.54 29.20 9.03L29.20 9.03L29.20 9.03Q28.99 9.52 28.85 10.19L28.85 10.19ZM37.80 6.83L37.80 6.83Q38.96 6.83 39.81 7.04L39.81 7.04L39.81 7.04Q40.66 7.25 41.11 7.63L41.11 7.63L41.11 7.63Q41.57 8.01 41.57 8.48L41.57 8.48L41.57 8.48Q41.57 8.97 41.18 9.28L41.18 9.28L41.18 9.28Q40.80 9.59 40.11 9.59L40.11 9.59L40.11 9.59Q39.41 9.59 38.93 9.24L38.93 9.24L38.93 9.24Q38.44 8.89 38.44 8.36L38.44 8.36L38.44 8.36Q38.44 8.18 38.50 8.01L38.50 8.01L38.50 8.01Q38.25 7.94 38.05 7.94L38.05 7.94L38.05 7.94Q37.70 7.94 37.47 8.11L37.47 8.11L37.47 8.11Q37.24 8.27 37.25 8.58L37.25 8.58L37.25 8.58Q37.25 8.95 37.62 9.20L37.62 9.20L37.62 9.20Q37.98 9.45 38.79 9.83L38.79 9.83L38.79 9.83Q39.49 10.14 39.95 10.40L39.95 10.40L39.95 10.40Q40.40 10.65 40.72 11.05L40.72 11.05L40.72 11.05Q41.03 11.44 41.03 11.97L41.03 11.97L41.03 11.97Q41.03 12.08 40.98 12.39L40.98 12.39L40.98 12.39Q40.75 13.33 39.73 13.87L39.73 13.87L39.73 13.87Q38.71 14.42 37.04 14.42L37.04 14.42L37.04 14.42Q35.17 14.42 34.07 13.92L34.07 13.92L34.07 13.92Q32.97 13.41 32.97 12.53L32.97 12.53L32.97 12.53Q32.97 11.93 33.33 11.62L33.33 11.62L33.33 11.62Q33.70 11.31 34.30 11.31L34.30 11.31L34.30 11.31Q35 11.31 35.50 11.75L35.50 11.75L35.50 11.75Q35.99 12.18 35.99 12.85L35.99 12.85L35.99 12.85Q35.99 13.03 35.95 13.23L35.95 13.23L35.95 13.23Q36.29 13.31 36.60 13.31L36.60 13.31L36.60 13.31Q36.96 13.31 37.20 13.12L37.20 13.12L37.20 13.12Q37.44 12.92 37.44 12.57L37.44 12.57L37.44 12.57Q37.42 12.25 37.11 12.02L37.11 12.02L37.11 12.02Q36.81 11.79 36.13 11.47L36.13 11.47L36.13 11.47Q35.50 11.17 35.10 10.91L35.10 10.91L35.10 10.91Q34.69 10.65 34.41 10.26L34.41 10.26L34.41 10.26Q34.12 9.87 34.12 9.34L34.12 9.34L34.12 9.34Q34.12 8.19 35.08 7.51L35.08 7.51L35.08 7.51Q36.04 6.83 37.80 6.83L37.80 6.83ZM46.10 6.83L46.10 6.83Q47.26 6.83 48.11 7.04L48.11 7.04L48.11 7.04Q48.96 7.25 49.41 7.63L49.41 7.63L49.41 7.63Q49.87 8.01 49.87 8.48L49.87 8.48L49.87 8.48Q49.87 8.97 49.48 9.28L49.48 9.28L49.48 9.28Q49.10 9.59 48.41 9.59L48.41 9.59L48.41 9.59Q47.71 9.59 47.23 9.24L47.23 9.24L47.23 9.24Q46.75 8.89 46.75 8.36L46.75 8.36L46.75 8.36Q46.75 8.18 46.80 8.01L46.80 8.01L46.80 8.01Q46.55 7.94 46.35 7.94L46.35 7.94L46.35 7.94Q46.00 7.94 45.77 8.11L45.77 8.11L45.77 8.11Q45.54 8.27 45.56 8.58L45.56 8.58L45.56 8.58Q45.56 8.95 45.92 9.20L45.92 9.20L45.92 9.20Q46.28 9.45 47.10 9.83L47.10 9.83L47.10 9.83Q47.80 10.14 48.25 10.40L48.25 10.40L48.25 10.40Q48.71 10.65 49.02 11.05L49.02 11.05L49.02 11.05Q49.34 11.44 49.34 11.97L49.34 11.97L49.34 11.97Q49.34 12.08 49.28 12.39L49.28 12.39L49.28 12.39Q49.06 13.33 48.03 13.87L48.03 13.87L48.03 13.87Q47.01 14.42 45.35 14.42L45.35 14.42L45.35 14.42Q43.47 14.42 42.37 13.92L42.37 13.92L42.37 13.92Q41.27 13.41 41.27 12.53L41.27 12.53L41.27 12.53Q41.27 11.93 41.64 11.62L41.64 11.62L41.64 11.62Q42 11.31 42.60 11.31L42.60 11.31L42.60 11.31Q43.30 11.31 43.80 11.75L43.80 11.75L43.80 11.75Q44.30 12.18 44.30 12.85L44.30 12.85L44.30 12.85Q44.30 13.03 44.25 13.23L44.25 13.23L44.25 13.23Q44.59 13.31 44.90 13.31L44.90 13.31L44.90 13.31Q45.26 13.31 45.50 13.12L45.50 13.12L45.50 13.12Q45.74 12.92 45.74 12.57L45.74 12.57L45.74 12.57Q45.72 12.25 45.42 12.02L45.42 12.02L45.42 12.02Q45.11 11.79 44.44 11.47L44.44 11.47L44.44 11.47Q43.81 11.17 43.40 10.91L43.40 10.91L43.40 10.91Q42.99 10.65 42.71 10.26L42.71 10.26L42.71 10.26Q42.42 9.87 42.42 9.34L42.42 9.34L42.42 9.34Q42.42 8.19 43.38 7.51L43.38 7.51L43.38 7.51Q44.34 6.83 46.10 6.83L46.10 6.83ZM56.06 7.14L56.06 7.14Q56.32 7.14 56.47 7.25L56.47 7.25L56.47 7.25Q56.62 7.36 56.62 7.56L56.62 7.56L56.62 7.56Q56.62 7.62 56.59 7.76L56.59 7.76L56.59 7.76Q56.41 8.37 55.75 8.37L55.75 8.37L54.94 8.37L53.89 11.83L53.89 11.83Q53.82 12.04 53.82 12.26L53.82 12.26L53.82 12.26Q53.82 12.52 53.96 12.61L53.96 12.61L53.96 12.61Q54.10 12.71 54.35 12.71L54.35 12.71L54.35 12.71Q54.57 12.71 54.91 12.66L54.91 12.66L54.91 12.66Q55.08 12.61 55.20 12.61L55.20 12.61L55.20 12.61Q55.30 12.61 55.35 12.68L55.35 12.68L55.35 12.68Q55.40 12.74 55.40 12.84L55.40 12.84L55.40 12.84Q55.41 13.12 54.98 13.52L54.98 13.52L54.98 13.52Q54.56 13.92 53.83 14.20L53.83 14.20L53.83 14.20Q53.10 14.49 52.22 14.49L52.22 14.49L52.22 14.49Q51.27 14.49 50.69 14.06L50.69 14.06L50.69 14.06Q50.12 13.62 50.12 12.87L50.12 12.87L50.12 12.87Q50.12 12.52 50.23 12.19L50.23 12.19L51.13 9.42L51.13 9.42Q51.20 9.18 51.20 9.04L51.20 9.04L51.20 9.04Q51.20 8.76 51.07 8.57L51.07 8.57L51.07 8.57Q50.93 8.37 50.69 8.16L50.69 8.16L50.69 8.16Q50.48 7.97 50.40 7.83L50.40 7.83L50.40 7.83Q50.32 7.70 50.36 7.52L50.36 7.52L50.36 7.52Q50.41 7.34 50.60 7.24L50.60 7.24L50.60 7.24Q50.78 7.14 51.17 7.14L51.17 7.14L51.95 7.14L52.84 6.26L52.84 6.26Q53.30 5.80 53.68 5.61L53.68 5.61L53.68 5.61Q54.07 5.43 54.68 5.43L54.68 5.43L54.68 5.43Q55.57 5.43 55.57 6.10L55.57 6.10L55.57 6.10Q55.57 6.31 55.51 6.50L55.51 6.50L55.31 7.14L56.06 7.14ZM60.82 6.96L60.82 6.96Q62.43 6.96 63.39 7.55L63.39 7.55L63.39 7.55Q64.36 8.15 64.36 9.37L64.36 9.37L64.36 9.37Q64.36 9.83 64.19 10.42L64.19 10.42L63.62 12.35L63.62 12.35Q63.60 12.40 63.60 12.49L63.60 12.49L63.60 12.49Q63.60 12.71 63.78 12.71L63.78 12.71L63.78 12.71Q63.95 12.71 64.07 12.57L64.07 12.57L64.07 12.57Q64.19 12.42 64.23 12.42L64.23 12.42L64.23 12.42Q64.30 12.42 64.35 12.52L64.35 12.52L64.35 12.52Q64.40 12.61 64.40 12.74L64.40 12.74L64.40 12.74Q64.41 13.12 64.11 13.51L64.11 13.51L64.11 13.51Q63.81 13.90 63.31 14.15L63.31 14.15L63.31 14.15Q62.80 14.41 62.20 14.41L62.20 14.41L62.20 14.41Q61.47 14.41 60.96 14.14L60.96 14.14L60.96 14.14Q60.44 13.87 60.24 13.36L60.24 13.36L60.24 13.36Q59.82 13.86 59.25 14.13L59.25 14.13L59.25 14.13Q58.67 14.41 58.02 14.41L58.02 14.41L58.02 14.41Q57.27 14.41 56.77 14.12L56.77 14.12L56.77 14.12Q56.27 13.83 56.02 13.38L56.02 13.38L56.02 13.38Q55.78 12.92 55.78 12.42L55.78 12.42L55.78 12.42Q55.78 12.19 55.82 11.98L55.82 11.98L55.82 11.98Q56.04 11.02 56.79 10.53L56.79 10.53L56.79 10.53Q57.54 10.04 58.58 10.04L58.58 10.04L58.58 10.04Q59.74 10.04 60.86 10.40L60.86 10.40L61.21 9.48L61.21 9.48Q61.39 8.89 61.39 8.57L61.39 8.57L61.39 8.57Q61.38 8.23 61.17 8.06L61.17 8.06L61.17 8.06Q60.96 7.90 60.52 7.90L60.52 7.90L60.52 7.90Q60.61 8.12 60.61 8.36L60.61 8.36L60.61 8.36Q60.61 8.88 60.21 9.25L60.21 9.25L60.21 9.25Q59.82 9.63 59.09 9.63L59.09 9.63L59.09 9.63Q58.41 9.63 58.02 9.33L58.02 9.33L58.02 9.33Q57.64 9.03 57.64 8.58L57.64 8.58L57.64 8.58Q57.64 7.88 58.42 7.42L58.42 7.42L58.42 7.42Q59.21 6.96 60.82 6.96L60.82 6.96ZM60.03 11.20L60.03 11.20Q59.64 11.20 59.40 11.50L59.40 11.50L59.40 11.50Q59.15 11.80 59.15 12.15L59.15 12.15L59.15 12.15Q59.15 12.38 59.26 12.52L59.26 12.52L59.26 12.52Q59.36 12.66 59.56 12.66L59.56 12.66L59.56 12.66Q59.74 12.66 59.96 12.51L59.96 12.51L59.96 12.51Q60.17 12.36 60.27 12.07L60.27 12.07L60.56 11.24L60.56 11.24Q60.33 11.20 60.03 11.20L60.03 11.20ZM69.64 6.89L69.64 6.89Q70.49 6.89 71.13 7.13L71.13 7.13L71.13 7.13Q71.78 7.38 72.14 7.81L72.14 7.81L72.14 7.81Q72.49 8.23 72.49 8.75L72.49 8.75L72.49 8.75Q72.49 9.31 72.11 9.67L72.11 9.67L72.11 9.67Q71.72 10.04 71.06 10.04L71.06 10.04L71.06 10.04Q70.39 10.04 70.01 9.70L70.01 9.70L70.01 9.70Q69.64 9.35 69.64 8.76L69.64 8.76L69.64 8.76Q69.64 8.48 69.72 8.18L69.72 8.18L69.72 8.18Q69.13 8.33 68.68 8.79L68.68 8.79L68.68 8.79Q68.22 9.24 68.07 9.98L68.07 9.98L68.07 9.98Q67.98 10.40 67.98 10.74L67.98 10.74L67.98 10.74Q67.98 11.49 68.40 11.89L68.40 11.89L68.40 11.89Q68.82 12.28 69.61 12.28L69.61 12.28L69.61 12.28Q70.06 12.28 70.38 12.19L70.38 12.19L70.38 12.19Q70.70 12.10 71.04 11.94L71.04 11.94L71.04 11.94Q71.32 11.80 71.44 11.80L71.44 11.80L71.44 11.80Q71.53 11.80 71.55 11.84L71.55 11.84L71.55 11.84Q71.58 11.87 71.58 11.98L71.58 11.98L71.58 11.98Q71.60 12.50 71.16 13.07L71.16 13.07L71.16 13.07Q70.71 13.64 69.94 14.02L69.94 14.02L69.94 14.02Q69.16 14.41 68.19 14.41L68.19 14.41L68.19 14.41Q67.19 14.41 66.41 14.04L66.41 14.04L66.41 14.04Q65.63 13.66 65.20 12.97L65.20 12.97L65.20 12.97Q64.78 12.28 64.78 11.35L64.78 11.35L64.78 11.35Q64.78 10.92 64.89 10.39L64.89 10.39L64.89 10.39Q65.27 8.65 66.56 7.77L66.56 7.77L66.56 7.77Q67.86 6.89 69.64 6.89L69.64 6.89ZM80.44 6.96L80.44 6.96Q81.24 6.96 81.72 7.40L81.72 7.40L81.72 7.40Q82.21 7.84 82.21 8.47L82.21 8.47L82.21 8.47Q82.21 9.14 81.80 9.52L81.80 9.52L81.80 9.52Q81.40 9.90 80.74 9.90L80.74 9.90L80.74 9.90Q80.15 9.90 79.83 9.60L79.83 9.60L79.83 9.60Q79.51 9.30 79.52 8.92L79.52 8.92L79.52 8.92Q79.38 8.89 79.28 9.03L79.28 9.03L79.28 9.03Q79.18 9.17 79.07 9.58L79.07 9.58L79.07 9.58Q79.00 9.84 78.81 10.07L78.81 10.07L78.81 10.07Q79.76 10.14 80.22 10.50L80.22 10.50L80.22 10.50Q80.68 10.86 80.68 11.44L80.68 11.44L80.68 11.44Q80.68 11.72 80.58 12.00L80.58 12.00L80.47 12.43L80.47 12.43Q80.44 12.50 80.44 12.61L80.44 12.61L80.44 12.61Q80.44 12.81 80.63 12.81L80.63 12.81L80.63 12.81Q80.79 12.81 80.91 12.66L80.91 12.66L80.91 12.66Q81.03 12.52 81.07 12.52L81.07 12.52L81.07 12.52Q81.14 12.52 81.19 12.61L81.19 12.61L81.19 12.61Q81.23 12.70 81.23 12.82L81.23 12.82L81.23 12.82Q81.24 13.23 80.98 13.62L80.98 13.62L80.98 13.62Q80.72 14 80.20 14.25L80.20 14.25L80.20 14.25Q79.67 14.49 78.93 14.49L78.93 14.49L78.93 14.49Q78.04 14.49 77.44 14.04L77.44 14.04L77.44 14.04Q76.85 13.59 76.85 12.87L76.85 12.87L76.85 12.87Q76.85 12.60 76.96 12.26L76.96 12.26L77.22 11.56L77.22 11.56Q77.29 11.31 77.29 11.20L77.29 11.20L77.29 11.20Q77.29 11.02 77.17 10.93L77.17 10.93L77.17 10.93Q77.06 10.85 76.80 10.85L76.80 10.85L76.52 10.85L75.89 12.91L75.89 12.91Q75.85 13.08 75.85 13.20L75.85 13.20L75.85 13.20Q75.85 13.38 75.92 13.49L75.92 13.49L75.92 13.49Q75.99 13.59 76.12 13.69L76.12 13.69L76.12 13.69Q76.22 13.79 76.26 13.85L76.26 13.85L76.26 13.85Q76.30 13.92 76.27 14.01L76.27 14.01L76.27 14.01Q76.20 14.20 75.99 14.28L75.99 14.28L75.99 14.28Q75.78 14.36 75.35 14.36L75.35 14.36L72.16 14.36L72.16 14.36Q71.79 14.36 71.62 14.25L71.62 14.25L71.62 14.25Q71.46 14.13 71.51 13.93L71.51 13.93L71.51 13.93Q71.57 13.76 71.81 13.64L71.81 13.64L71.81 13.64Q72.02 13.52 72.16 13.37L72.16 13.37L72.16 13.37Q72.30 13.22 72.39 12.88L72.39 12.88L74.52 5.89L74.52 5.89Q74.56 5.77 74.56 5.68L74.56 5.68L74.56 5.68Q74.56 5.53 74.49 5.43L74.49 5.43L74.49 5.43Q74.41 5.33 74.28 5.24L74.28 5.24L74.28 5.24Q74.14 5.12 74.08 5.04L74.08 5.04L74.08 5.04Q74.02 4.96 74.06 4.82L74.06 4.82L74.06 4.82Q74.14 4.49 74.94 4.26L74.94 4.26L74.94 4.26Q75.74 4.02 76.61 4.02L76.61 4.02L76.61 4.02Q77.42 4.02 77.80 4.32L77.80 4.32L77.80 4.32Q78.18 4.62 78.18 5.15L78.18 5.15L78.18 5.15Q78.18 5.47 78.08 5.77L78.08 5.77L76.86 9.74L77.32 9.74L77.32 9.74Q77.60 9.74 77.78 9.58L77.78 9.58L77.78 9.58Q77.95 9.41 78.05 9.09L78.05 9.09L78.05 9.09Q78.40 8.05 78.96 7.50L78.96 7.50L78.96 7.50Q79.52 6.96 80.44 6.96L80.44 6.96Z"></path></g><defs data-v-423bf9ae=""><linearGradient data-v-423bf9ae="" gradientTransform="rotate(25)" id="8685a8ee-c2c9-43ce-b751-ad11ad2fa324" x1="0%" y1="0%" x2="100%" y2="0%"><stop data-v-423bf9ae="" offset="0%" style="stop-color: rgb(135, 84, 78); stop-opacity: 1;"></stop><stop data-v-423bf9ae="" offset="100%" style="stop-color: rgb(135, 84, 78); stop-opacity: 1;"></stop></linearGradient></defs><g data-v-423bf9ae="" id="b013679c-d0c7-4f2a-8202-e20f60b36462" transform="matrix(1.0188089385187298,0,0,1.0188089385187298,-4.978442192634546,-5.109666630532516)" stroke="none" fill="url(#8685a8ee-c2c9-43ce-b751-ad11ad2fa324)"><path d="M49.896 60.677c-.512 0-1.023-.13-1.483-.392L6.522 36.486a3.002 3.002 0 0 1-.051-5.195l42.1-25.038a3.007 3.007 0 0 1 3.062-.007l41.889 24.676a3.004 3.004 0 0 1-.031 5.195l-42.098 24.16c-.463.267-.98.4-1.497.4zM13.985 33.813L49.89 54.211l36.127-20.733-35.904-21.15-36.128 21.485z"></path><path d="M49.896 77.431c-.512 0-1.023-.13-1.483-.392L6.522 53.241a3.006 3.006 0 1 1 2.967-5.226l40.4 22.95L90.498 47.66a3.004 3.004 0 1 1 2.991 5.212l-42.097 24.16a2.987 2.987 0 0 1-1.496.399z"></path><path d="M49.896 94.169c-.512 0-1.023-.13-1.483-.392L6.522 69.979a3.006 3.006 0 1 1 2.967-5.226l40.4 22.95 40.609-23.305a3.006 3.006 0 0 1 2.991 5.212L51.392 93.77a2.987 2.987 0 0 1-1.496.399z"></path></g><!----></svg>
